<?xml version="1.0" encoding="utf-8"?>
<!-- Generator: Adobe Illustrator 16.0.1, SVG Export Plug-In . SVG Version: 6.00 Build 0)  -->
<!DOCTYPE svg PUBLIC "-//W3C//DTD SVG 1.1//EN" "http://www.w3.org/Graphics/SVG/1.1/DTD/svg11.dtd">
<svg version="1.1" id="Слой_1" xmlns="http://www.w3.org/2000/svg" xmlns:xlink="http://www.w3.org/1999/xlink" x="0px" y="0px"
	 width="99.519px" height="111.552px" viewBox="0 0 99.519 111.552" enable-background="new 0 0 99.519 111.552"
	 xml:space="preserve">
<linearGradient id="SVGID_1_" gradientUnits="userSpaceOnUse" x1="49.7593" y1="0" x2="49.7593" y2="99.5186">
	<stop  offset="0" style="stop-color:#8DDF7C"/>
	<stop  offset="0.1305" style="stop-color:#86DE75"/>
	<stop  offset="0.3272" style="stop-color:#71DA63"/>
	<stop  offset="0.5656" style="stop-color:#4FD345"/>
	<stop  offset="0.8344" style="stop-color:#20CA1C"/>
	<stop  offset="1" style="stop-color:#00C400"/>
</linearGradient>
<polygon fill="url(#SVGID_1_)" points="49.759,5.759 54.66,0 58.343,6.604 64.273,1.912 66.597,9.108 73.329,5.663 74.205,13.175 
	81.479,11.109 80.872,18.646 88.41,18.04 86.344,25.314 93.855,26.189 90.41,32.921 97.606,35.245 92.914,41.175 99.519,44.858 
	93.759,49.759 99.519,54.66 92.914,58.343 97.606,64.273 90.41,66.597 93.855,73.329 86.344,74.205 88.41,81.479 80.872,80.872 
	81.479,88.41 74.205,86.344 73.329,93.855 66.597,90.41 64.273,97.606 58.343,92.914 54.66,99.519 49.759,93.759 44.858,99.519 
	41.175,92.914 35.245,97.606 32.921,90.41 26.189,93.855 25.314,86.344 18.04,88.41 18.646,80.872 11.109,81.479 13.175,74.205 
	5.663,73.329 9.108,66.597 1.912,64.273 6.604,58.343 0,54.66 5.759,49.759 0,44.858 6.604,41.175 1.912,35.245 9.108,32.921 
	5.663,26.189 13.175,25.314 11.109,18.04 18.646,18.646 18.04,11.109 25.314,13.175 26.189,5.663 32.921,9.108 35.245,1.912 
	41.175,6.604 44.858,0 "/>
<radialGradient id="SVGID_2_" cx="49.7593" cy="101.4702" r="35.234" gradientTransform="matrix(1 0 0 0.1 0 97.4656)" gradientUnits="userSpaceOnUse">
	<stop  offset="0" style="stop-color:#4D4D4D;stop-opacity:0.6"/>
	<stop  offset="0.1507" style="stop-color:#515151;stop-opacity:0.5096"/>
	<stop  offset="0.3069" style="stop-color:#5E5E5E;stop-opacity:0.4159"/>
	<stop  offset="0.4656" style="stop-color:#727272;stop-opacity:0.3206"/>
	<stop  offset="0.6262" style="stop-color:#8F8F8F;stop-opacity:0.2243"/>
	<stop  offset="0.788" style="stop-color:#B5B5B5;stop-opacity:0.1272"/>
	<stop  offset="0.9489" style="stop-color:#E2E2E2;stop-opacity:0.0307"/>
	<stop  offset="1" style="stop-color:#F2F2F2;stop-opacity:0"/>
</radialGradient>
<ellipse fill="url(#SVGID_2_)" cx="49.759" cy="107.613" rx="49.759" ry="3.938"/>
<g>
	<path fill="#E6E6E6" d="M16.703,35.374h6.323v3.54c2.262-2.75,4.956-4.126,8.081-4.126c1.66,0,3.101,0.342,4.321,1.025
		s2.222,1.717,3.003,3.101c1.139-1.383,2.368-2.417,3.687-3.101s2.726-1.025,4.224-1.025c1.904,0,3.516,0.387,4.834,1.16
		c1.318,0.773,2.303,1.909,2.954,3.406c0.472,1.107,0.708,2.897,0.708,5.371v16.577h-6.86V46.482c0-2.571-0.236-4.231-0.708-4.98
		c-0.635-0.977-1.611-1.465-2.93-1.465c-0.96,0-1.864,0.293-2.71,0.879c-0.847,0.586-1.457,1.445-1.831,2.576
		c-0.375,1.131-0.562,2.917-0.562,5.359v12.451h-6.86V47.093c0-2.522-0.122-4.15-0.366-4.883s-0.623-1.277-1.135-1.636
		c-0.513-0.358-1.208-0.537-2.087-0.537c-1.058,0-2.01,0.285-2.856,0.854c-0.847,0.57-1.453,1.392-1.819,2.466
		s-0.549,2.856-0.549,5.347v12.598h-6.86V35.374z"/>
	<path fill="#E6E6E6" d="M66.8,43.284l-6.226-1.123c0.7-2.506,1.904-4.362,3.613-5.566c1.709-1.204,4.248-1.807,7.617-1.807
		c3.06,0,5.338,0.362,6.836,1.086c1.497,0.725,2.551,1.644,3.162,2.759c0.61,1.115,0.916,3.162,0.916,6.14l-0.073,8.008
		c0,2.279,0.11,3.959,0.33,5.042c0.22,1.083,0.63,2.242,1.233,3.479H77.42c-0.179-0.456-0.399-1.131-0.659-2.026
		c-0.114-0.407-0.195-0.675-0.244-0.806c-1.172,1.14-2.425,1.994-3.76,2.563c-1.335,0.569-2.759,0.854-4.272,0.854
		c-2.669,0-4.773-0.724-6.311-2.173c-1.538-1.448-2.307-3.279-2.307-5.493c0-1.465,0.35-2.771,1.05-3.918
		c0.7-1.147,1.68-2.026,2.942-2.637c1.261-0.61,3.08-1.143,5.457-1.599c3.206-0.602,5.428-1.164,6.665-1.685v-0.684
		c0-1.318-0.326-2.258-0.977-2.82c-0.651-0.562-1.88-0.842-3.687-0.842c-1.221,0-2.173,0.24-2.856,0.72
		C67.777,41.238,67.223,42.08,66.8,43.284z M75.98,48.851c-0.879,0.293-2.271,0.643-4.175,1.05
		c-1.904,0.407-3.149,0.806-3.735,1.196c-0.896,0.635-1.343,1.44-1.343,2.417c0,0.96,0.358,1.791,1.074,2.49
		c0.716,0.7,1.627,1.05,2.734,1.05c1.237,0,2.417-0.407,3.54-1.221c0.83-0.618,1.375-1.375,1.636-2.271
		c0.179-0.586,0.269-1.701,0.269-3.345V48.851z"/>
</g>
<text transform="matrix(1 0 0 1 13.6265 61.3018)" display="none" fill="#FFFFFF" font-family="'Arial-BoldMT'" font-size="50">ma</text>
</svg>
