<?xml version="1.0" encoding="utf-8"?>
<svg version="1.1" xmlns="http://www.w3.org/2000/svg" xmlns:xlink="http://www.w3.org/1999/xlink" x="0px" y="0px" viewBox="-67 -29.6 500.8 111.6" style="enable-background:new -67 -29.6 500.8 111.6;" xml:space="preserve">
<style type="text/css">
	.st0{fill:url(#SVGID_1_);}
	.st1{fill:url(#SVGID_2_);}
	.st2{enable-background:new;}
	.st3{fill:#FFFFFF;}
	.st4{fill:#218DB7;}
	.st5{fill:#5DB84F;}
</style>
<linearGradient id="SVGID_1_" gradientUnits="userSpaceOnUse" x1="-17.2405" y1="81.448" x2="-17.2405" y2="-18.071" gradientTransform="matrix(1 0 0 -1 0 51.896)">
	<stop  offset="0" style="stop-color:#8DDF7C"/>
	<stop  offset="0.1305" style="stop-color:#86DE75"/>
	<stop  offset="0.3272" style="stop-color:#71DA63"/>
	<stop  offset="0.5656" style="stop-color:#4FD345"/>
	<stop  offset="0.8344" style="stop-color:#20CA1C"/>
	<stop  offset="1" style="stop-color:#00C400"/>
</linearGradient>
<polygon class="st0" points="-17.2,-23.8 -12.3,-29.6 -8.7,-22.9 -2.7,-27.6 -0.4,-20.4 6.3,-23.9 7.2,-16.4 14.5,-18.4 13.9,-10.9
	21.4,-11.5 19.3,-4.2 26.9,-3.4 23.4,3.4 30.6,5.7 25.9,11.6 32.5,15.3 26.8,20.2 32.5,25.1 25.9,28.8 30.6,34.7 23.4,37 26.9,43.8
	19.3,44.7 21.4,51.9 13.9,51.3 14.5,58.9 7.2,56.8 6.3,64.3 -0.4,60.9 -2.7,68.1 -8.7,63.4 -12.3,70 -17.2,64.2 -22.1,70
	-25.8,63.4 -31.8,68.1 -34.1,60.9 -40.8,64.3 -41.7,56.8 -49,58.9 -48.4,51.3 -55.9,51.9 -53.8,44.7 -61.3,43.8 -57.9,37
	-65.1,34.7 -60.4,28.8 -67,25.1 -61.2,20.2 -67,15.3 -60.4,11.6 -65.1,5.7 -57.9,3.4 -61.3,-3.4 -53.8,-4.2 -55.9,-11.5
	-48.4,-10.9 -49,-18.4 -41.7,-16.4 -40.8,-23.9 -34.1,-20.4 -31.8,-27.6 -25.8,-22.9 -22.1,-29.6 "/>
<radialGradient id="SVGID_2_" cx="-17.241" cy="240.974" r="35.2354" gradientTransform="matrix(1 0 0 -0.1 0 102.1584)" gradientUnits="userSpaceOnUse">
	<stop  offset="0" style="stop-color:#4D4D4D;stop-opacity:0.6"/>
	<stop  offset="0.1507" style="stop-color:#515151;stop-opacity:0.5096"/>
	<stop  offset="0.3069" style="stop-color:#5E5E5E;stop-opacity:0.4159"/>
	<stop  offset="0.4656" style="stop-color:#727272;stop-opacity:0.3206"/>
	<stop  offset="0.6262" style="stop-color:#8F8F8F;stop-opacity:0.2243"/>
	<stop  offset="0.788" style="stop-color:#B5B5B5;stop-opacity:0.1272"/>
	<stop  offset="0.9489" style="stop-color:#E2E2E2;stop-opacity:3.070000e-002"/>
	<stop  offset="1" style="stop-color:#F2F2F2;stop-opacity:0"/>
</radialGradient>
<ellipse class="st1" cx="-17.2" cy="78.1" rx="49.8" ry="3.9"/>
<g class="st2">
	<path class="st3" d="M-51.3,28V8.8c0-1.2,0.3-2.2,1-2.9c0.7-0.7,1.5-1.1,2.6-1.1c0.9,0,1.7,0.2,2.3,0.7c0.6,0.5,0.9,1.1,1.1,2
		c1.8-2,4.1-3,6.7-3c3,0,5.5,1.2,7.4,3.6c1-1.1,2.2-2,3.6-2.6c1.4-0.7,2.8-1,4-1c2,0,3.7,0.4,5.2,1.1c1.5,0.7,2.6,1.8,3.5,3.3
		s1.2,3.2,1.2,5.3V28c0,0.8-0.2,1.5-0.5,2.1c-0.3,0.6-0.7,1.1-1.3,1.4c-0.6,0.3-1.2,0.5-1.9,0.5c-1.1,0-1.9-0.4-2.6-1.1
		c-0.7-0.7-1-1.7-1-2.9V15.5c0-1-0.2-1.8-0.5-2.6c-0.3-0.7-0.8-1.3-1.5-1.7c-0.6-0.4-1.4-0.6-2.2-0.6c-1.3,0-2.3,0.5-3.1,1.4
		c-0.8,0.9-1.1,2.1-1.1,3.6V28c0,0.8-0.2,1.5-0.5,2.1c-0.3,0.6-0.7,1.1-1.3,1.4c-0.6,0.3-1.2,0.5-1.9,0.5c-1.1,0-1.9-0.4-2.6-1.1
		c-0.7-0.7-1-1.7-1-2.9V15.5c0-1-0.2-1.8-0.5-2.6c-0.3-0.7-0.8-1.3-1.5-1.7c-0.6-0.4-1.4-0.6-2.2-0.6c-1,0-1.8,0.2-2.4,0.6
		c-0.6,0.4-1.1,1-1.4,1.7c-0.3,0.7-0.5,1.6-0.5,2.6V28c0,0.8-0.2,1.5-0.5,2.1c-0.3,0.6-0.7,1.1-1.3,1.4c-0.6,0.3-1.2,0.5-1.9,0.5
		c-1.1,0-1.9-0.4-2.6-1.1C-51,30.2-51.3,29.2-51.3,28z"/>
	<path class="st3" d="M15.9,9.6v17.8c0,1.4-0.2,2.5-0.6,3.4C14.9,31.6,14,32,12.4,32c-1,0-1.7-0.3-2.3-0.8C9.6,30.8,9.2,30,9,29
		c-1.9,2.2-4.2,3.4-6.9,3.4c-2.2,0-4.2-0.6-6.1-1.8c-1.8-1.2-3.3-2.8-4.3-4.9c-1-2.1-1.5-4.5-1.5-7.1c0-2.6,0.5-4.9,1.6-7
		c1.1-2.1,2.5-3.8,4.3-5.1C-2,5.2,0,4.6,2.1,4.6c1.4,0,2.6,0.3,3.9,0.8c1.2,0.6,2.2,1.4,3,2.5C9.1,7,9.5,6.2,10.1,5.7
		c0.7-0.6,1.4-0.8,2.3-0.8c1.5,0,2.5,0.4,2.9,1.3C15.7,7,15.9,8.2,15.9,9.6z M-2.6,18.5c0,1.2,0.2,2.4,0.6,3.5
		c0.4,1.1,1.1,2,1.9,2.7s1.9,1,3.1,1c1.8,0,3.1-0.7,4.1-2.2s1.5-3.2,1.5-5.1c0-1.2-0.2-2.4-0.6-3.5s-1-2.1-1.9-2.8s-1.9-1.1-3-1.1
		c-1.2,0-2.2,0.4-3.1,1.1c-0.9,0.7-1.5,1.6-1.9,2.8C-2.4,16.1-2.6,17.3-2.6,18.5z"/>
</g>
<g>
	<path class="st4" d="M48.3,40.4V-2.9h6.5l12.8,39.1h0.1L80.3-2.9h6.1v43.3h-3.8V0.8h-0.1L69.7,40.4h-4.4L52.2,0.8h-0.1v39.6H48.3z"
		/>
	<path class="st4" d="M110,36.7h-0.1c-1.9,2.9-4.8,4.3-8.6,4.3c-2.7,0-4.8-0.8-6.2-2.5c-1.4-1.7-2.1-3.8-2.1-6.4
		c0-1.8,0.3-3.2,0.8-4.4c0.5-1.2,1.3-2.1,2.2-2.8c0.9-0.7,2-1.3,3.1-1.6c1.2-0.4,2.4-0.6,3.6-0.8c1.2-0.1,2.5-0.2,3.7-0.3
		c1.2,0,2.3-0.1,3.4-0.2v-2.5c0-2.2-0.4-4-1.3-5.3c-0.8-1.3-2.5-1.9-4.9-1.9c-1.7,0-3.1,0.4-4.2,1.3c-1.1,0.8-1.7,2.2-1.7,4h-3.8
		c0.1-1.4,0.4-2.7,1-3.7c0.6-1,1.3-1.9,2.2-2.5c0.9-0.6,2-1.1,3.1-1.4c1.2-0.3,2.4-0.4,3.8-0.4c0.8,0,1.7,0.1,2.8,0.2
		c1.1,0.1,2.1,0.4,3.1,1c1,0.5,1.8,1.3,2.5,2.4c0.7,1.1,1,2.6,1,4.5v15.2c0,1.1,0,2.2,0,3.3c0,1.1,0.1,2.6,0.3,4.3H110V36.7z
		 M109.8,25c-1.3,0-2.7,0.1-4.2,0.1c-1.5,0-2.9,0.3-4.2,0.7c-1.3,0.4-2.4,1.1-3.2,2c-0.9,0.9-1.3,2.3-1.3,4.2c0,1.7,0.4,3.2,1.3,4.4
		c0.9,1.2,2.3,1.8,4.1,1.8c1,0,2-0.2,2.9-0.6c0.9-0.4,1.7-1,2.4-1.7c0.7-0.7,1.2-1.5,1.6-2.5c0.4-0.9,0.6-1.9,0.6-2.9V25z"/>
	<path class="st4" d="M136.8,10.1h3.5c-0.1,1.4-0.1,2.6-0.2,3.4c0,0.9,0,1.7,0,2.5v25.5c0,1.7-0.2,3.2-0.5,4.5s-0.9,2.4-1.7,3.3
		c-0.8,0.9-1.9,1.6-3.3,2.1c-1.4,0.5-3.2,0.7-5.3,0.7c-1.9,0-3.4-0.3-4.6-0.9c-1.2-0.6-2.1-1.3-2.7-2.2c-0.6-0.9-1.1-1.8-1.3-2.8
		c-0.2-1-0.3-1.9-0.2-2.6h3.6c-0.1,1.8,0.4,3.1,1.5,4.1c1.1,1,2.5,1.4,4.2,1.4c1.8,0,3.1-0.2,4-0.7c0.9-0.5,1.5-1.2,1.9-2.3
		c0.4-1,0.6-2.4,0.6-4c0-1.6,0-3.6,0-5.8h-0.1c-0.8,1.3-1.9,2.2-3.2,2.8c-1.3,0.6-2.7,0.9-4.1,0.9c-2.2,0-3.9-0.4-5.1-1.3
		c-1.2-0.9-2.2-2-2.8-3.3c-0.6-1.3-1-2.9-1.2-4.6c-0.2-1.7-0.2-3.4-0.2-5.1c0-1.8,0-3.1,0-4.1c0-1,0.1-1.8,0.1-2.5
		c0.1-0.7,0.2-1.3,0.3-1.8c0.1-0.5,0.3-1.2,0.5-2c0.1-0.3,0.3-0.8,0.6-1.5c0.3-0.7,0.8-1.3,1.5-2c0.7-0.7,1.5-1.3,2.6-1.8
		c1.1-0.5,2.3-0.8,3.9-0.8c1.5,0,3,0.4,4.3,1.1c1.4,0.7,2.4,1.8,3.1,3.1l0.1,0.1V10.1z M129.8,12.4c-1.6,0-2.8,0.4-3.6,1.3
		c-0.9,0.8-1.5,1.9-1.9,3.1c-0.4,1.2-0.6,2.6-0.7,4c-0.1,1.4-0.1,2.7-0.1,3.8c0,1.6,0,3.1,0.1,4.6c0.1,1.5,0.3,2.9,0.7,4.1
		s1.1,2.1,2,2.8c0.9,0.7,2.1,1.1,3.8,1.1c1.5,0,2.7-0.4,3.7-1.2c0.9-0.8,1.5-1.5,1.8-2.3c0.2-0.6,0.4-1.2,0.6-1.7
		c0.1-0.5,0.2-1.2,0.3-2.1c0.1-0.9,0.1-2,0.2-3.4c0-1.4,0.1-3.2,0.1-5.4c0-1.6-0.2-2.9-0.6-4.1c-0.4-1.1-0.9-2-1.5-2.7
		c-0.6-0.7-1.3-1.2-2.2-1.5C131.5,12.6,130.6,12.4,129.8,12.4z"/>
	<path class="st4" d="M150.4,26v2.3c0,1,0.1,2.1,0.3,3.3s0.5,2.2,1,3.2s1.2,1.8,2.1,2.4s2,0.9,3.5,0.9c2.3,0,4-0.7,5.1-2
		c1.1-1.3,1.6-3,1.6-5h3.8c-0.1,1.8-0.4,3.4-1,4.6c-0.5,1.2-1.2,2.3-2.1,3c-0.9,0.8-2,1.3-3.2,1.7c-1.2,0.3-2.6,0.5-4.1,0.5
		c-1.3,0-2.6-0.2-3.8-0.5c-1.2-0.3-2.4-0.9-3.3-1.7c-1-0.8-1.8-2-2.4-3.5c-0.6-1.5-0.9-3.3-0.9-5.6v-7.4c0-4.4,0.9-7.6,2.7-9.7
		c1.8-2.1,4.4-3.1,7.8-3.1c2.6,0,4.6,0.4,6,1.3c1.4,0.9,2.5,2.1,3.1,3.6s1,3.3,1.1,5.3c0.1,2,0.1,4.1,0.1,6.4H150.4z M164.1,23.2
		c0-1.7-0.1-3.2-0.3-4.5c-0.2-1.3-0.5-2.4-1-3.4c-0.5-0.9-1.2-1.6-2.1-2.1s-2.1-0.7-3.5-0.7c-1.4,0-2.6,0.2-3.5,0.7
		c-0.9,0.5-1.6,1.2-2.1,2.1c-0.5,0.9-0.8,2.1-1,3.4c-0.2,1.3-0.3,2.8-0.3,4.5H164.1z"/>
	<path class="st4" d="M177.9,40.4h-3.6V10.1h3.6v3.7h0.1c0.9-1.3,1.9-2.3,3.1-3.1c1.2-0.8,2.6-1.2,4.2-1.2c1.9,0,3.4,0.3,4.5,0.9
		c1.1,0.6,1.9,1.4,2.5,2.3c0.6,0.9,0.9,2,1.1,3.1c0.2,1.1,0.2,2.2,0.2,3.2v21.4H190V19.3c0-0.9-0.1-1.7-0.3-2.5
		c-0.2-0.8-0.5-1.5-0.9-2.2c-0.4-0.6-1-1.1-1.7-1.5c-0.7-0.4-1.6-0.6-2.6-0.6c-0.8,0-1.6,0.1-2.4,0.5c-0.8,0.3-1.5,0.8-2.1,1.5
		c-0.6,0.7-1.1,1.6-1.5,2.8c-0.4,1.2-0.6,2.6-0.6,4.3V40.4z"/>
	<path class="st4" d="M198.2,13v-2.9h4.9V3.9l3.6-1.6v7.8h6.1V13h-6.1v19.4c0,1,0,1.8,0.1,2.5c0.1,0.6,0.2,1.2,0.5,1.5
		c0.2,0.4,0.5,0.6,1,0.8c0.4,0.1,1,0.2,1.7,0.2c0.6,0,1.1,0,1.6,0c0.4,0,0.9-0.1,1.3-0.2v3.1c-1.1,0.1-2.2,0.2-3.4,0.2
		c-2.4,0-4.1-0.5-5-1.5s-1.3-2.5-1.3-4.3V13H198.2z"/>
	<path class="st4" d="M227.2,41c-3.6,0-6.2-1.1-7.9-3.3c-1.7-2.2-2.5-5.3-2.5-9.2V22c0-4,0.8-7,2.5-9.2c1.7-2.2,4.3-3.3,7.9-3.3
		c3.6,0,6.2,1.1,7.9,3.3c1.7,2.2,2.5,5.3,2.5,9.2v6.5c0,4-0.8,7-2.5,9.2C233.4,40,230.8,41,227.2,41z M227.2,12.4
		c-1.5,0-2.7,0.3-3.6,0.9s-1.6,1.5-2.1,2.6c-0.5,1.1-0.8,2.5-1,4c-0.2,1.6-0.2,3.4-0.2,5.3c0,2,0.1,3.8,0.2,5.4
		c0.2,1.6,0.5,2.9,1,4.1c0.5,1.1,1.2,2,2.1,2.6s2.1,0.9,3.6,0.9c1.5,0,2.7-0.3,3.6-0.9c0.9-0.6,1.6-1.5,2.1-2.6
		c0.5-1.1,0.8-2.5,1-4.1c0.2-1.6,0.2-3.4,0.2-5.4c0-2-0.1-3.7-0.2-5.3c-0.2-1.6-0.5-2.9-1-4c-0.5-1.1-1.2-2-2.1-2.6
		C229.9,12.7,228.7,12.4,227.2,12.4z"/>
	<path class="st5" d="M259.6-2.9l13.5,43.3h-4L265.6,29h-17l-3.4,11.4h-3.8L255-2.9H259.6z M264.6,25.8l-7.4-24.5h-0.1l-7.3,24.5
		H264.6z"/>
	<path class="st5" d="M277.3,40.4c0.1-0.5,0.2-1,0.2-1.5c0.1-0.5,0.1-1,0.1-1.5V-2.9h3.6v16.4l0.1,0.1c0.9-1.4,2-2.5,3.2-3.2
		c1.2-0.7,2.7-1,4.4-1c1.6,0,3,0.3,4.1,0.8c1.1,0.5,2,1.2,2.6,2.1c0.7,0.9,1.2,1.9,1.5,3c0.3,1.1,0.5,2.2,0.7,3.4
		c0.1,1.2,0.2,2.3,0.2,3.5c0,1.1,0,2.1,0,3c0,1.7-0.1,3.4-0.2,5.3c-0.1,1.8-0.5,3.5-1.1,5.1s-1.6,2.8-2.8,3.9c-1.3,1-3,1.5-5.2,1.5
		c-3.6,0-6.1-1.4-7.6-4.3h-0.1v3.7H277.3z M281.2,24.8c0,1.2,0,2.6,0.1,4.1c0.1,1.5,0.3,3,0.7,4.3c0.4,1.4,1.1,2.5,1.9,3.5
		s2.1,1.4,3.8,1.4c1.7,0,3-0.3,3.9-1c0.9-0.7,1.6-1.6,2-2.7c0.4-1.2,0.7-2.5,0.8-4.1s0.1-3.2,0.1-5c0-1.8,0-3.4-0.1-5
		c-0.1-1.6-0.3-3-0.8-4.1c-0.4-1.2-1.1-2.1-2-2.8c-0.9-0.7-2.2-1-3.9-1c-1.4,0-2.6,0.4-3.5,1.3c-0.9,0.9-1.5,1.9-2,3.2
		c-0.4,1.3-0.7,2.6-0.9,4.1C281.2,22.4,281.2,23.7,281.2,24.8z"/>
	<path class="st5" d="M321.2,32.5c0,2.9-0.8,5-2.3,6.5c-1.6,1.4-3.8,2.1-6.6,2.1c-3.3,0-5.6-0.8-7-2.4s-2.1-4-2-7.2h3.6
		c0,1,0.1,2,0.2,2.8s0.4,1.6,0.8,2.2c0.4,0.6,1,1.1,1.7,1.4s1.7,0.5,2.8,0.5c1.8,0,3.1-0.5,3.9-1.4s1.3-2.3,1.3-3.9
		c0-1.3-0.3-2.4-1-3.2s-1.5-1.6-2.5-2.2c-1-0.6-2.1-1.2-3.3-1.7c-1.2-0.5-2.3-1.2-3.3-1.9c-1-0.7-1.8-1.6-2.5-2.7
		c-0.7-1.1-1-2.4-1-4.1c0-1.4,0.2-2.6,0.7-3.5c0.5-1,1.1-1.7,1.9-2.3c0.8-0.6,1.8-1,2.9-1.3c1.1-0.3,2.3-0.4,3.7-0.4
		c1.5,0,2.7,0.2,3.8,0.7c1,0.5,1.8,1.1,2.5,1.9c0.6,0.8,1.1,1.7,1.3,2.8c0.3,1.1,0.4,2.2,0.4,3.3h-3.5c-0.1-1.9-0.5-3.4-1.2-4.4
		c-0.7-1-2.1-1.5-4.1-1.5c-1.3,0-2.4,0.4-3.3,1.2c-0.9,0.8-1.4,1.9-1.4,3.2c0,1.2,0.3,2.3,1,3.1c0.7,0.8,1.5,1.5,2.5,2.1
		s2.1,1.2,3.3,1.7c1.2,0.5,2.3,1.2,3.3,1.9c1,0.7,1.8,1.6,2.5,2.7C320.9,29.4,321.2,30.8,321.2,32.5z"/>
	<path class="st5" d="M337.2,41c-3.6,0-6.2-1.1-7.9-3.3c-1.7-2.2-2.5-5.3-2.5-9.2V22c0-4,0.8-7,2.5-9.2c1.7-2.2,4.3-3.3,7.9-3.3
		c3.6,0,6.2,1.1,7.9,3.3c1.7,2.2,2.5,5.3,2.5,9.2v6.5c0,4-0.8,7-2.5,9.2C343.4,40,340.8,41,337.2,41z M337.2,12.4
		c-1.5,0-2.7,0.3-3.6,0.9s-1.6,1.5-2.1,2.6c-0.5,1.1-0.8,2.5-1,4c-0.2,1.6-0.2,3.4-0.2,5.3c0,2,0.1,3.8,0.2,5.4
		c0.2,1.6,0.5,2.9,1,4.1c0.5,1.1,1.2,2,2.1,2.6s2.1,0.9,3.6,0.9c1.5,0,2.7-0.3,3.6-0.9c0.9-0.6,1.6-1.5,2.1-2.6
		c0.5-1.1,0.8-2.5,1-4.1c0.2-1.6,0.2-3.4,0.2-5.4c0-2-0.1-3.7-0.2-5.3c-0.2-1.6-0.5-2.9-1-4c-0.5-1.1-1.2-2-2.1-2.6
		C339.9,12.7,338.7,12.4,337.2,12.4z"/>
	<path class="st5" d="M355.4,40.4V-2.9h3.6v43.3H355.4z"/>
	<path class="st5" d="M386.6,10.1v30.3h-3.1v-3.4h-0.1c-1,1.3-2.2,2.3-3.3,2.9c-1.2,0.7-2.6,1-4.3,1c-1.6,0-2.8-0.3-3.9-0.8
		c-1-0.5-1.8-1.2-2.5-2.1c-0.6-0.9-1-1.9-1.3-3c-0.2-1.1-0.4-2.3-0.4-3.6V10.1h3.6V31c0,0.2,0,0.7,0.1,1.5c0,0.8,0.2,1.6,0.5,2.4
		c0.3,0.8,0.8,1.6,1.5,2.3c0.7,0.7,1.7,1,3,1c1.2,0,2.2-0.3,3.1-0.8c0.8-0.5,1.5-1.1,2-1.8c0.5-0.7,0.9-1.4,1.1-2.2
		c0.2-0.8,0.4-1.4,0.4-1.9V10.1H386.6z"/>
	<path class="st5" d="M391.5,13v-2.9h4.9V3.9l3.6-1.6v7.8h6.1V13h-6.1v19.4c0,1,0,1.8,0.1,2.5c0.1,0.6,0.2,1.2,0.5,1.5
		c0.2,0.4,0.5,0.6,1,0.8c0.4,0.1,1,0.2,1.7,0.2c0.6,0,1.1,0,1.6,0c0.4,0,0.9-0.1,1.3-0.2v3.1c-1.1,0.1-2.2,0.2-3.4,0.2
		c-2.4,0-4.1-0.5-5-1.5s-1.3-2.5-1.3-4.3V13H391.5z"/>
	<path class="st5" d="M413.7,26v2.3c0,1,0.1,2.1,0.3,3.3s0.5,2.2,1,3.2s1.2,1.8,2.1,2.4s2,0.9,3.5,0.9c2.3,0,4-0.7,5.1-2
		c1.1-1.3,1.6-3,1.6-5h3.8c-0.1,1.8-0.4,3.4-1,4.6c-0.5,1.2-1.2,2.3-2.1,3c-0.9,0.8-2,1.3-3.2,1.7c-1.2,0.3-2.6,0.5-4.1,0.5
		c-1.3,0-2.6-0.2-3.8-0.5c-1.2-0.3-2.4-0.9-3.3-1.7c-1-0.8-1.8-2-2.4-3.5c-0.6-1.5-0.9-3.3-0.9-5.6v-7.4c0-4.4,0.9-7.6,2.7-9.7
		c1.8-2.1,4.4-3.1,7.8-3.1c2.6,0,4.6,0.4,6,1.3c1.4,0.9,2.5,2.1,3.1,3.6s1,3.3,1.1,5.3c0.1,2,0.1,4.1,0.1,6.4H413.7z M427.3,23.2
		c0-1.7-0.1-3.2-0.3-4.5c-0.2-1.3-0.5-2.4-1-3.4c-0.5-0.9-1.2-1.6-2.1-2.1s-2.1-0.7-3.5-0.7c-1.4,0-2.6,0.2-3.5,0.7
		c-0.9,0.5-1.6,1.2-2.1,2.1c-0.5,0.9-0.8,2.1-1,3.4c-0.2,1.3-0.3,2.8-0.3,4.5H427.3z"/>
</g>
</svg>
