<?xml version="1.0" ?><!DOCTYPE svg  PUBLIC '-//W3C//DTD SVG 1.1//EN'  'http://www.w3.org/Graphics/SVG/1.1/DTD/svg11.dtd'><svg enable-background="new 0 0 87 56" height="56px" id="Layer_1" version="1.1" viewBox="0 0 87 56" width="87px" xml:space="preserve" xmlns="http://www.w3.org/2000/svg" xmlns:xlink="http://www.w3.org/1999/xlink"><g><path d="M84.167,1.115H2.833C1.774,1.413,1,2.302,1,3.365v49.271c0,1.063,0.774,1.951,1.833,2.249h81.334   C85.227,54.587,86,53.698,86,52.636V3.365C86,2.302,85.227,1.413,84.167,1.115z" fill="#003473"/><g><g><g><circle cx="27.881" cy="28.001" fill="#ED1C2E" r="23.266"/><g><path d="M59.118,4.733c-6.013,0-11.49,2.281-15.62,6.023c-0.84,0.762-1.624,1.586-2.348,2.463h4.7       c0.644,0.781,1.233,1.604,1.773,2.464h-8.248c-0.493,0.791-0.942,1.612-1.341,2.464h10.93c0.373,0.798,0.702,1.619,0.985,2.463       H37.051c-0.27,0.803-0.496,1.625-0.677,2.463h14.251c0.341,1.589,0.521,3.236,0.521,4.928c0,2.583-0.42,5.067-1.196,7.392       H37.051c0.281,0.844,0.611,1.666,0.984,2.465h10.93c-0.398,0.85-0.847,1.672-1.343,2.463h-8.246       c0.538,0.859,1.131,1.682,1.774,2.463h4.7c-0.724,0.877-1.509,1.701-2.351,2.464c4.129,3.741,9.604,6.021,15.618,6.021       c12.85,0,23.267-10.416,23.267-23.266C82.384,15.152,71.968,4.733,59.118,4.733z" fill="#FCB131"/></g></g><path d="M79.283,40.971c0-0.414,0.337-0.75,0.752-0.75c0.416,0,0.751,0.336,0.751,0.75     c0,0.415-0.335,0.752-0.751,0.752C79.62,41.723,79.283,41.386,79.283,40.971z M80.035,41.542c0.314,0,0.57-0.256,0.57-0.571     c0-0.316-0.256-0.57-0.57-0.57s-0.571,0.254-0.571,0.57C79.464,41.286,79.721,41.542,80.035,41.542z M79.934,41.3h-0.154v-0.659     h0.279c0.059,0,0.117,0,0.17,0.032c0.053,0.037,0.084,0.101,0.084,0.165c0,0.075-0.045,0.145-0.115,0.171l0.121,0.291h-0.17     l-0.103-0.261h-0.112V41.3L79.934,41.3z M79.934,40.926h0.086c0.031,0,0.064,0.002,0.095-0.013     c0.024-0.019,0.038-0.047,0.038-0.076c0-0.024-0.018-0.055-0.038-0.067c-0.027-0.017-0.069-0.013-0.099-0.013h-0.082V40.926z" fill="#FCB131"/></g><g><g><path d="M22.448,30.548c-0.265-0.03-0.382-0.039-0.563-0.039c-1.432,0-2.156,0.49-2.156,1.462      c0,0.598,0.354,0.978,0.905,0.978C21.663,32.947,22.404,31.968,22.448,30.548z M24.286,34.824c-0.337,0-2.094,0-2.094,0      l0.048-0.995c-0.638,0.786-1.489,1.161-2.647,1.161c-1.368,0-2.307-1.068-2.307-2.621c0-2.337,1.632-3.7,4.435-3.7      c0.287,0,0.653,0.026,1.029,0.074c0.078-0.317,0.099-0.452,0.099-0.623c0-0.635-0.439-0.873-1.619-0.873      c-1.236-0.014-2.255,0.295-2.674,0.432c0.026-0.159,0.35-2.158,0.35-2.158c1.259-0.37,2.089-0.508,3.023-0.508      c2.169,0,3.318,0.974,3.315,2.814c0.005,0.493-0.077,1.101-0.204,1.901C24.82,31.118,24.35,34.1,24.286,34.824z" fill="#003473"/><polygon fill="#003473" points="16.229,34.824 13.703,34.824 15.15,25.753 11.919,34.824 10.198,34.824 9.985,25.804       8.464,34.824 6.1,34.824 8.075,23.022 11.707,23.022 11.927,29.629 14.143,23.022 18.183,23.022     "/><path d="M62.239,30.548c-0.265-0.03-0.382-0.039-0.563-0.039c-1.433,0-2.154,0.49-2.154,1.462      c0,0.598,0.352,0.978,0.903,0.978C61.454,32.947,62.195,31.968,62.239,30.548z M64.078,34.824c-0.338,0-2.094,0-2.094,0      l0.048-0.995c-0.64,0.786-1.49,1.161-2.646,1.161c-1.371,0-2.309-1.068-2.309-2.621c0-2.337,1.633-3.7,4.436-3.7      c0.285,0,0.651,0.026,1.028,0.074c0.078-0.317,0.099-0.452,0.099-0.623c0-0.635-0.439-0.873-1.619-0.873      c-1.236-0.014-2.256,0.295-2.676,0.432c0.027-0.159,0.354-2.158,0.354-2.158c1.258-0.37,2.088-0.508,3.021-0.508      c2.17,0,3.317,0.974,3.315,2.814c0.004,0.493-0.077,1.101-0.205,1.901C64.611,31.118,64.141,34.1,64.078,34.824z" fill="#003473"/><path d="M35.512,34.68c-0.692,0.217-1.231,0.312-1.815,0.312c-1.291,0-1.996-0.741-1.996-2.108      c-0.018-0.424,0.187-1.541,0.347-2.559c0.146-0.896,1.096-6.549,1.096-6.549h2.51l-0.293,1.452h1.517l-0.343,2.308h-1.521      c-0.292,1.824-0.708,4.098-0.712,4.4c0,0.494,0.264,0.711,0.865,0.711c0.288,0,0.511-0.03,0.681-0.092L35.512,34.68z" fill="#003473"/><path d="M43.209,34.602c-0.863,0.264-1.693,0.393-2.576,0.39c-2.811-0.003-4.275-1.472-4.275-4.281      c0-3.28,1.863-5.696,4.395-5.696c2.069,0,3.392,1.352,3.392,3.473c0,0.705-0.09,1.391-0.311,2.361h-4.999      c-0.169,1.393,0.721,1.971,2.184,1.971c0.896,0,1.708-0.185,2.609-0.603L43.209,34.602z M41.798,28.911      c0.015-0.2,0.267-1.713-1.169-1.713c-0.799,0-1.371,0.609-1.604,1.713H41.798z" fill="#003473"/><path d="M25.801,28.262c0,1.212,0.589,2.05,1.923,2.679c1.023,0.48,1.182,0.623,1.182,1.06      c0,0.599-0.451,0.869-1.45,0.869c-0.754,0-1.455-0.118-2.264-0.38c0,0-0.331,2.115-0.347,2.217      c0.573,0.125,1.086,0.24,2.628,0.284c2.665,0,3.896-1.015,3.896-3.208c0-1.318-0.515-2.092-1.78-2.676      c-1.059-0.484-1.182-0.594-1.182-1.042c0-0.52,0.421-0.784,1.236-0.784c0.496,0,1.174,0.053,1.815,0.144l0.359-2.226      c-0.653-0.104-1.646-0.187-2.223-0.187C26.77,25.013,25.792,26.488,25.801,28.262z" fill="#003473"/><path d="M55.494,25.266c0.701,0,1.355,0.183,2.257,0.638l0.413-2.562c-0.371-0.146-1.673-0.999-2.775-0.999      c-1.689,0-3.121,0.84-4.125,2.223c-1.466-0.485-2.068,0.496-2.808,1.474L47.8,26.192c0.05-0.322,0.095-0.642,0.08-0.966h-2.319      c-0.316,2.972-0.879,5.979-1.317,8.952l-0.115,0.646h2.526c0.423-2.74,0.652-4.495,0.794-5.684l0.95-0.526      c0.145-0.53,0.588-0.708,1.479-0.688c-0.116,0.626-0.18,1.285-0.18,1.968c0,3.142,1.696,5.096,4.415,5.096      c0.699,0,1.302-0.092,2.232-0.346l0.442-2.688c-0.838,0.41-1.522,0.604-2.146,0.604c-1.47,0-2.356-1.084-2.356-2.875      C52.287,27.087,53.607,25.266,55.494,25.266z" fill="#003473"/><path d="M76.879,23.022l-0.563,3.41c-0.688-0.908-1.431-1.566-2.409-1.566c-1.275,0-2.435,0.966-3.194,2.389      c-1.059-0.219-2.15-0.593-2.15-0.593l-0.002,0.009c0.084-0.795,0.121-1.279,0.111-1.444h-2.32      c-0.313,2.972-0.877,5.979-1.314,8.953l-0.117,0.646h2.528c0.341-2.214,0.602-4.056,0.794-5.515      c0.863-0.781,1.297-1.459,2.168-1.417c-0.387,0.936-0.612,2.01-0.612,3.115c0,2.398,1.213,3.981,3.05,3.981      c0.926,0,1.637-0.319,2.329-1.061l-0.118,0.894h2.39l1.924-11.801H76.879z M73.721,32.607c-0.859,0-1.296-0.639-1.296-1.893      c0-1.887,0.814-3.225,1.96-3.225c0.868,0,1.338,0.66,1.338,1.88C75.723,31.273,74.896,32.607,73.721,32.607z" fill="#003473"/></g><g><polygon fill="#FFFFFF" points="16.955,34.124 14.43,34.124 15.877,25.053 12.646,34.124 10.925,34.124 10.712,25.105       9.191,34.124 6.827,34.124 8.802,22.323 12.435,22.323 12.535,29.629 14.986,22.323 18.909,22.323     "/><path d="M23.176,29.85c-0.265-0.031-0.382-0.039-0.563-0.039c-1.432,0-2.156,0.489-2.156,1.459      c0,0.598,0.354,0.979,0.905,0.979C22.391,32.249,23.132,31.27,23.176,29.85z M25.013,34.124c-0.337,0-2.093,0-2.093,0      l0.048-0.994c-0.638,0.785-1.49,1.161-2.647,1.161c-1.369,0-2.307-1.07-2.307-2.623c0-2.337,1.632-3.698,4.435-3.698      c0.286,0,0.653,0.025,1.029,0.074c0.078-0.317,0.099-0.453,0.099-0.625c0-0.635-0.44-0.871-1.62-0.871      c-1.236-0.014-2.255,0.293-2.674,0.431c0.026-0.159,0.351-2.157,0.351-2.157c1.259-0.369,2.089-0.51,3.022-0.51      c2.17,0,3.318,0.975,3.316,2.814c0.004,0.494-0.077,1.104-0.205,1.901C25.548,30.417,25.077,33.398,25.013,34.124z" fill="#FFFFFF"/><path d="M58.893,22.642l-0.414,2.561c-0.901-0.453-1.557-0.637-2.256-0.637c-1.887,0-3.209,1.822-3.209,4.422      c0,1.791,0.889,2.873,2.356,2.873c0.622,0,1.31-0.192,2.146-0.605l-0.443,2.689c-0.93,0.254-1.531,0.347-2.231,0.347      c-2.72,0-4.414-1.956-4.414-5.095c0-4.22,2.343-7.168,5.689-7.168C57.218,22.028,58.521,22.495,58.893,22.642z" fill="#FFFFFF"/><path d="M62.966,29.85c-0.264-0.031-0.381-0.039-0.563-0.039c-1.43,0-2.154,0.489-2.154,1.459      c0,0.598,0.354,0.979,0.904,0.979C62.182,32.249,62.924,31.27,62.966,29.85z M64.805,34.124c-0.336,0-2.093,0-2.093,0      l0.047-0.994c-0.638,0.785-1.489,1.161-2.646,1.161c-1.371,0-2.309-1.07-2.309-2.623c0-2.337,1.631-3.698,4.435-3.698      c0.286,0,0.651,0.025,1.028,0.074c0.078-0.317,0.1-0.453,0.1-0.625c0-0.635-0.439-0.871-1.62-0.871      c-1.235-0.014-2.253,0.293-2.674,0.431c0.026-0.159,0.351-2.157,0.351-2.157c1.26-0.369,2.09-0.51,3.023-0.51      c2.168,0,3.318,0.975,3.314,2.814c0.006,0.494-0.076,1.104-0.203,1.901C65.34,30.417,64.869,33.398,64.805,34.124z" fill="#FFFFFF"/><path d="M36.238,33.979c-0.691,0.219-1.23,0.313-1.815,0.313c-1.29,0-1.995-0.743-1.995-2.108      c-0.018-0.426,0.186-1.539,0.347-2.559c0.146-0.896,1.095-6.549,1.095-6.549h2.511l-0.294,1.452h1.289l-0.343,2.306h-1.294      c-0.291,1.827-0.707,4.1-0.712,4.4c0,0.496,0.265,0.711,0.865,0.711c0.288,0,0.511-0.027,0.681-0.09L36.238,33.979z" fill="#FFFFFF"/><path d="M43.937,33.902c-0.862,0.265-1.696,0.39-2.577,0.389c-2.811-0.003-4.275-1.471-4.275-4.282      c0-3.281,1.863-5.697,4.393-5.697c2.072,0,3.394,1.354,3.394,3.475c0,0.704-0.093,1.391-0.31,2.359h-5      c-0.17,1.394,0.722,1.975,2.182,1.975c0.898,0,1.71-0.186,2.61-0.605L43.937,33.902z M42.525,28.211      c0.014-0.2,0.267-1.714-1.168-1.714c-0.8,0-1.372,0.611-1.605,1.714H42.525z" fill="#FFFFFF"/><path d="M26.527,27.562c0,1.215,0.589,2.049,1.924,2.68c1.022,0.48,1.182,0.623,1.182,1.059      c0,0.6-0.451,0.869-1.451,0.869c-0.754,0-1.454-0.117-2.264-0.378c0,0-0.331,2.114-0.347,2.215      c0.574,0.126,1.086,0.24,2.629,0.285c2.665,0,3.896-1.015,3.896-3.208c0-1.318-0.516-2.093-1.781-2.674      c-1.059-0.487-1.181-0.596-1.181-1.043c0-0.52,0.42-0.786,1.236-0.786c0.495,0,1.173,0.055,1.815,0.146l0.359-2.226      c-0.654-0.104-1.646-0.188-2.224-0.188C27.497,24.312,26.519,25.788,26.527,27.562z" fill="#FFFFFF"/><path d="M78.173,34.124h-2.389l0.118-0.894c-0.693,0.74-1.403,1.061-2.329,1.061c-1.835,0-3.05-1.582-3.05-3.982      c0-3.191,1.883-5.884,4.109-5.884c0.979,0,1.721,0.4,2.412,1.309l0.561-3.41h2.49L78.173,34.124z M74.447,31.907      c1.177,0,2.002-1.334,2.002-3.234c0-1.22-0.471-1.882-1.338-1.882c-1.146,0-1.959,1.337-1.959,3.225      C73.152,31.271,73.588,31.907,74.447,31.907z" fill="#FFFFFF"/><path d="M67.079,24.527c-0.315,2.97-0.877,5.979-1.315,8.952l-0.115,0.646h2.525      c0.903-5.869,1.121-7.014,2.539-6.871c0.227-1.201,0.646-2.253,0.958-2.783c-1.058-0.221-1.647,0.377-2.423,1.514      c0.063-0.492,0.173-0.969,0.152-1.456L67.079,24.527L67.079,24.527z" fill="#FFFFFF"/><path d="M46.287,24.527c-0.316,2.97-0.88,5.979-1.318,8.952l-0.115,0.646h2.527      c0.904-5.869,1.121-7.014,2.537-6.871c0.227-1.201,0.646-2.253,0.96-2.783c-1.058-0.221-1.649,0.377-2.422,1.514      c0.062-0.492,0.173-0.969,0.149-1.456L46.287,24.527L46.287,24.527z" fill="#FFFFFF"/><g><path d="M79.283,33.373c0-0.417,0.337-0.752,0.75-0.752c0.416,0,0.751,0.335,0.751,0.752       c0,0.413-0.335,0.751-0.751,0.751C79.62,34.124,79.283,33.786,79.283,33.373z M80.033,33.943c0.316,0,0.572-0.256,0.572-0.57       s-0.256-0.571-0.572-0.571c-0.315,0-0.57,0.257-0.57,0.571S79.718,33.943,80.033,33.943z M79.932,33.701h-0.152v-0.659h0.279       c0.059,0,0.116,0.002,0.168,0.033c0.055,0.036,0.084,0.1,0.084,0.165c0,0.074-0.043,0.145-0.113,0.171l0.121,0.29h-0.172       l-0.102-0.262h-0.113V33.701z M79.932,33.327h0.086c0.03,0,0.066,0.004,0.094-0.013c0.025-0.017,0.039-0.047,0.039-0.075       c0-0.025-0.016-0.054-0.036-0.068c-0.027-0.017-0.07-0.012-0.099-0.012h-0.084V33.327z" fill="#FFFFFF"/></g></g></g></g></g></svg>