<?xml version="1.0" ?><!DOCTYPE svg  PUBLIC '-//W3C//DTD SVG 1.1//EN'  'http://www.w3.org/Graphics/SVG/1.1/DTD/svg11.dtd'><svg enable-background="new 0 0 87 56" height="56px" id="Layer_1" version="1.1" viewBox="0 0 87 56" width="87px" xml:space="preserve" xmlns="http://www.w3.org/2000/svg" xmlns:xlink="http://www.w3.org/1999/xlink"><g><path d="M86,52.636C86,53.941,84.84,55,83.407,55H3.593C2.161,55,1,53.941,1,52.636V3.365C1,2.059,2.161,1,3.593,1   h79.814C84.84,1,86,2.059,86,3.365V52.636z" fill="#F1F2F2"/><g><polygon fill="#00589F" points="31.683,39.91 35.73,16.149 42.21,16.149 38.155,39.91   "/><path d="M61.648,16.734c-1.283-0.482-3.295-0.999-5.807-0.999c-6.398,0-10.908,3.223-10.947,7.842    c-0.035,3.414,3.219,5.319,5.676,6.456c2.521,1.166,3.369,1.908,3.359,2.949c-0.02,1.592-2.016,2.317-3.879,2.317    c-2.591,0-3.968-0.356-6.095-1.245l-0.834-0.378l-0.909,5.32c1.511,0.662,4.309,1.235,7.215,1.267    c6.811,0,11.227-3.187,11.277-8.119c0.025-2.701-1.699-4.759-5.436-6.455c-2.267-1.102-3.653-1.834-3.64-2.946    c0-0.989,1.175-2.044,3.711-2.044c2.116-0.035,3.652,0.428,4.845,0.91l0.584,0.275L61.648,16.734L61.648,16.734z" fill="#00589F"/><path d="M78.256,16.172h-5.004c-1.551,0-2.711,0.423-3.393,1.97L60.242,39.92h6.802c0,0,1.108-2.928,1.362-3.572    c0.742,0,7.35,0.012,8.295,0.012c0.191,0.832,0.787,3.562,0.787,3.562H83.5L78.256,16.172L78.256,16.172z M70.27,31.488    c0.537-1.369,2.58-6.642,2.58-6.642c-0.035,0.062,0.532-1.377,0.858-2.269l0.438,2.048c0,0,1.238,5.673,1.5,6.863H70.27    L70.27,31.488z" fill="#00589F"/><path d="M26.25,16.167l-6.342,16.205l-0.678-3.293c-1.178-3.797-4.856-7.91-8.969-9.968l5.798,20.784l6.853-0.011    L33.11,16.167H26.25L26.25,16.167z" fill="#00589F"/><path d="M14.027,16.152H3.58L3.5,16.646c8.125,1.968,13.502,6.722,15.731,12.433l-2.269-10.92    C16.571,16.653,15.433,16.205,14.027,16.152L14.027,16.152z" fill="#F9A51A"/></g></g></svg>