<?xml version="1.0" encoding="UTF-8"?>
<!-- Generator: Adobe Illustrator 19.0.0, SVG Export Plug-In . SVG Version: 6.00 Build 0)  -->
<svg version="1.1" id="Layer_1" xmlns="http://www.w3.org/2000/svg" xmlns:xlink="http://www.w3.org/1999/xlink" x="0px" y="0px" viewBox="-262 369 87 56" style="enable-background:new -262 369 87 56;" xml:space="preserve">
<style type="text/css">
	.st0{fill:#3498D8;}
	.st1{fill:#FFFFFF;}
</style>
<g>
	<path class="st0" d="M-180.4,369h-76.1c-3,0-5.4,2.4-5.4,5.3v45.3c0,2.9,2.4,5.3,5.4,5.3h76.1c3,0,5.4-2.4,5.4-5.3v-45.3   C-175,371.4-177.4,369-180.4,369z"/>
</g>
<g id="Amex_1_">
	<g>
		<path class="st1" d="M-243.8,397.8h4.4l-2.2-5.3L-243.8,397.8z M-183.2,387.7h-11.1l-2.7,2.9l-2.4-2.9h-23.7l-2.2,4.8l-2.2-4.8    h-9.5v2.1l-1.1-2.1h-8.2l-7.9,18.7h9.5l1.1-2.9h2.7l1.1,2.9h10.6v-2.1l0.8,2.1h5.4l0.8-2.4v2.4h21.8l2.7-2.9l2.4,2.9h11.1    l-7.1-9.3L-183.2,387.7z M-216.1,403.7h-3v-10.4l-4.6,10.4h-2.7l-4.6-10.4v10.4h-6.3l-1.1-2.9h-6.5l-1.1,2.9h-3.5l5.7-13.3h4.6    l5.2,12.5v-12.5h5.2l4.1,9.1l3.8-9.1h5.2v13.3H-216.1z M-189.1,403.7h-4.1l-3.5-4.5l-4.1,4.5h-12.2v-13.3h12.5l3.8,4.3l4.1-4.3    h3.8l-6,6.7L-189.1,403.7z M-210.1,393v2.4h6.8v2.7h-6.8v2.7h7.6l3.5-4l-3.3-3.7H-210.1z"/>
	</g>
</g>
</svg>