<?xml version="1.0" ?><!DOCTYPE svg  PUBLIC '-//W3C//DTD SVG 1.1//EN'  'http://www.w3.org/Graphics/SVG/1.1/DTD/svg11.dtd'><svg enable-background="new 0 0 87 56" height="56px" id="Layer_1" version="1.1" viewBox="0 0 87 56" width="87px" xml:space="preserve" xmlns="http://www.w3.org/2000/svg" xmlns:xlink="http://www.w3.org/1999/xlink"><g><path d="M84.167,1.115H2.833C1.774,1.413,1,2.302,1,3.365v49.271c0,1.063,0.774,1.951,1.833,2.249h81.334   C85.227,54.587,86,53.698,86,52.636V3.365C86,2.302,85.227,1.413,84.167,1.115z" fill="#003473"/><g><g><g><circle cx="59.121" cy="28" fill="#ED1C2E" r="23.264"/><g><path d="M41.15,42.775c-0.643-0.779-1.234-1.603-1.772-2.465h8.246c0.494-0.789,0.94-1.611,1.34-2.463H38.038       c-0.372-0.798-0.703-1.619-0.985-2.464h12.895c0.774-2.319,1.194-4.803,1.194-7.384c0-1.69-0.18-3.339-0.521-4.927H36.38       c0.181-0.84,0.407-1.661,0.675-2.465h12.89c-0.283-0.844-0.611-1.665-0.984-2.463h-10.92c0.398-0.85,0.847-1.672,1.34-2.463       h8.239c-0.537-0.86-1.129-1.682-1.771-2.462h-4.696c0.722-0.878,1.507-1.7,2.348-2.463c-4.129-3.744-9.609-6.024-15.621-6.024       C15.031,4.734,4.615,15.15,4.615,28c0,12.852,10.416,23.266,23.265,23.266c6.012,0,11.492-2.279,15.621-6.023       c0.841-0.764,1.628-1.588,2.349-2.467H41.15z" fill="#009DDD"/></g></g><g><path d="M79.283,40.967c0-0.414,0.338-0.75,0.752-0.75c0.416,0,0.752,0.336,0.752,0.75      c0,0.416-0.336,0.752-0.752,0.752C79.621,41.719,79.283,41.383,79.283,40.967z M80.035,41.539c0.314,0,0.572-0.256,0.572-0.572      c0-0.314-0.258-0.568-0.572-0.568s-0.57,0.254-0.57,0.568C79.465,41.283,79.721,41.539,80.035,41.539z M79.934,41.299h-0.154      v-0.662h0.279c0.06,0,0.117,0.002,0.168,0.035c0.056,0.035,0.084,0.1,0.084,0.164c0,0.076-0.043,0.145-0.112,0.17l0.12,0.293      h-0.172l-0.1-0.262h-0.113V41.299L79.934,41.299z M79.934,40.924h0.086c0.031,0,0.064,0.002,0.095-0.012      c0.024-0.018,0.036-0.047,0.036-0.078c0-0.023-0.016-0.053-0.034-0.066c-0.027-0.016-0.07-0.012-0.101-0.012h-0.082V40.924z" fill="#ED1C2E"/></g></g><g><g><path d="M43.168,34.287c-0.994,0.264-1.955,0.393-2.972,0.391c-3.242-0.004-4.931-1.479-4.931-4.305      c0-3.299,2.149-5.727,5.067-5.727c2.387,0,3.911,1.361,3.911,3.493c0,0.707-0.104,1.396-0.356,2.371h-5.766      c-0.205,1.381,0.802,1.986,2.517,1.986c1.026,0,1.955-0.186,2.983-0.6L43.168,34.287z M41.619,28.564      c0-0.208,0.32-1.689-1.349-1.722c-0.922,0-1.582,0.612-1.85,1.722H41.619z" fill="#003473"/><path d="M45.123,27.917c0,1.219,0.686,2.062,2.246,2.688c1.191,0.487,1.379,0.629,1.379,1.065      c0,0.604-0.525,0.881-1.695,0.875c-0.879-0.008-1.682-0.112-2.627-0.377l-0.42,2.226c0.842,0.194,2.021,0.258,3.066,0.282      c3.113,0,4.553-1.02,4.553-3.225c0-1.324-0.602-2.104-2.08-2.685c-1.236-0.495-1.381-0.601-1.381-1.047      c0-0.525,0.49-0.791,1.445-0.791c0.578,0,1.371,0.054,2.123,0.145l0.422-2.235c-0.766-0.106-1.928-0.191-2.603-0.191      C46.254,24.648,45.113,26.132,45.123,27.917z" fill="#003473"/><path d="M33.685,34.518h-2.419l0.058-1.012c-0.737,0.799-1.72,1.172-3.053,1.172      c-1.578,0-2.659-1.08-2.659-2.633c0-2.357,1.879-3.719,5.11-3.719c0.332,0,0.754,0.025,1.188,0.074      c0.09-0.316,0.114-0.452,0.114-0.624c0-0.646-0.509-0.883-1.869-0.883c-1.341,0.005-2.245,0.204-3.084,0.429l0.413-2.164      c1.452-0.369,2.402-0.512,3.477-0.512c2.502,0,3.824,0.981,3.824,2.825c0.021,0.492-0.15,1.48-0.236,1.912      C34.451,30.012,33.757,33.658,33.685,34.518z M31.561,30.215c-0.306-0.031-0.439-0.039-0.649-0.039      c-1.649,0-2.486,0.49-2.486,1.459c0,0.609,0.408,0.99,1.044,0.99C30.655,32.625,31.511,31.633,31.561,30.215z" fill="#003473"/><path d="M56.721,34.365c-0.793,0.217-1.412,0.313-2.08,0.313c-1.481,0-2.291-0.758-2.291-2.104      c-0.047-0.371,0.314-2.084,0.396-2.562c0.082-0.479,1.365-7.452,1.365-7.452h2.879l-0.436,2.308h1.479l-0.402,2.354h-1.482      c0,0-0.813,4.086-0.813,4.399c0,0.496,0.301,0.711,0.99,0.711c0.327,0,0.584-0.029,0.778-0.09L56.721,34.365z" fill="#003473"/><path d="M69.586,24.646c-2.111,0-3.76,0.869-4.717,2.32l0.83-2.152c-1.531-0.563-2.52,0.24-3.412,1.381      c0,0-0.148,0.189-0.299,0.363v-1.691h-2.703c-0.365,2.984-1.014,6.012-1.52,9.002l-0.123,0.65h2.907      c0.277-1.519,0.505-2.75,0.729-3.732c0.619-2.695,1.658-3.518,3.219-3.154c-0.359,0.774-0.559,1.672-0.559,2.664      c0,2.41,1.309,4.381,4.557,4.381c3.277,0,5.65-1.75,5.65-5.744C74.146,26.526,72.566,24.646,69.586,24.646z M68.738,32.336      c-1.027,0.016-1.648-0.846-1.648-2.137c0-1.527,0.908-3.254,2.367-3.254c1.178,0,1.582,0.935,1.582,1.93      C71.039,31.049,70.148,32.336,68.738,32.336z" fill="#003473"/><polygon fill="#003473" points="24.256,34.52 21.36,34.52 23.081,25.451 19.118,34.52 16.479,34.52 15.996,25.503 14.269,34.52       11.642,34.52 13.879,22.723 18.405,22.723 18.782,29.299 21.649,22.723 26.539,22.723     "/></g><g><path d="M74.367,33.041c0-0.416,0.338-0.752,0.752-0.752c0.416,0,0.752,0.336,0.752,0.752      s-0.336,0.752-0.752,0.752C74.705,33.793,74.367,33.457,74.367,33.041z M75.119,33.613c0.314,0,0.572-0.258,0.572-0.572      c0-0.316-0.258-0.57-0.572-0.57s-0.57,0.254-0.57,0.57C74.549,33.355,74.805,33.613,75.119,33.613z M75.018,33.371h-0.153v-0.66      h0.278c0.06,0,0.117,0,0.168,0.033c0.056,0.037,0.084,0.1,0.084,0.164c0,0.076-0.043,0.145-0.112,0.172l0.12,0.291H75.23      l-0.101-0.262h-0.112V33.371L75.018,33.371z M75.018,32.996h0.086c0.031,0,0.064,0.002,0.095-0.012      c0.024-0.019,0.036-0.047,0.036-0.076c0-0.025-0.016-0.055-0.034-0.066c-0.027-0.018-0.07-0.014-0.101-0.014h-0.082V32.996z" fill="#FFFFFF"/><path d="M43.895,33.561c-0.993,0.265-1.955,0.394-2.971,0.392c-3.243-0.004-4.932-1.479-4.932-4.306      c0-3.298,2.149-5.727,5.067-5.727c2.388,0,3.912,1.361,3.912,3.492c0,0.708-0.103,1.395-0.355,2.372H38.85      c-0.206,1.379,0.801,1.983,2.516,1.983c1.026,0,1.956-0.184,2.983-0.598L43.895,33.561z M42.345,27.837      c0-0.208,0.32-1.689-1.348-1.722c-0.922,0-1.583,0.612-1.851,1.722H42.345z" fill="#FFFFFF"/><path d="M45.85,27.189c0,1.22,0.687,2.061,2.246,2.69c1.193,0.488,1.379,0.629,1.379,1.064      c0,0.604-0.524,0.883-1.695,0.877c-0.879-0.008-1.682-0.115-2.627-0.377l-0.418,2.223c0.841,0.197,2.021,0.26,3.064,0.285      c3.113,0,4.553-1.02,4.553-3.225c0-1.324-0.6-2.104-2.078-2.685c-1.235-0.494-1.383-0.602-1.383-1.048      c0-0.525,0.49-0.792,1.445-0.792c0.58,0,1.371,0.055,2.123,0.145l0.422-2.234c-0.766-0.107-1.928-0.192-2.6-0.192      C46.98,23.92,45.84,25.405,45.85,27.189z" fill="#FFFFFF"/><path d="M34.413,33.791h-2.42l0.059-1.014c-0.739,0.799-1.721,1.172-3.054,1.172c-1.578,0-2.66-1.08-2.66-2.631      c0-2.359,1.879-3.719,5.111-3.719c0.332,0,0.754,0.025,1.189,0.072c0.09-0.315,0.113-0.45,0.113-0.622      c0-0.646-0.508-0.884-1.868-0.884c-1.341,0.006-2.245,0.205-3.084,0.43l0.412-2.164c1.452-0.369,2.402-0.512,3.479-0.512      c2.502,0,3.823,0.98,3.823,2.825c0.021,0.492-0.15,1.479-0.236,1.912C35.177,29.285,34.484,32.932,34.413,33.791z       M32.289,29.488c-0.307-0.033-0.44-0.041-0.65-0.041c-1.649,0-2.486,0.492-2.486,1.461c0,0.609,0.409,0.99,1.044,0.99      C31.383,31.898,32.239,30.906,32.289,29.488z" fill="#FFFFFF"/><path d="M57.447,33.639c-0.793,0.217-1.412,0.313-2.08,0.313c-1.482,0-2.291-0.759-2.291-2.106      c-0.047-0.369,0.314-2.082,0.396-2.56c0.082-0.479,1.366-7.452,1.366-7.452h2.879l-0.436,2.307h1.477l-0.401,2.355h-1.482      c0,0-0.814,4.086-0.814,4.398c0,0.496,0.301,0.711,0.99,0.711c0.33,0,0.584-0.028,0.781-0.09L57.447,33.639z" fill="#FFFFFF"/><path d="M71.768,28.146c0,2.176-0.893,3.463-2.303,3.463c-1.027,0.016-1.648-0.846-1.648-2.137      c0-1.529,0.908-3.255,2.367-3.255C71.363,26.218,71.768,27.152,71.768,28.146z M74.875,28.208c0-2.408-1.582-4.288-4.563-4.288      c-3.429,0-5.646,2.285-5.646,5.65c0,2.41,1.308,4.382,4.558,4.382C72.502,33.951,74.875,32.199,74.875,28.208z" fill="#FFFFFF"/><path d="M60.012,24.138c-0.365,2.986-1.014,6.012-1.52,9.002l-0.121,0.651h2.906      c1.049-5.777,1.399-7.422,3.598-6.843l1.057-2.732c-1.533-0.563-2.52,0.24-3.41,1.382c0.08-0.514,0.23-1.01,0.195-1.461H60.012z      " fill="#FFFFFF"/><polygon fill="#FFFFFF" points="24.982,33.793 22.087,33.793 23.808,24.724 19.845,33.793 17.205,33.793 16.723,24.777       14.996,33.793 12.369,33.793 14.606,21.997 19.132,21.997 19.372,29.299 22.557,21.997 27.265,21.997     "/></g></g></g></g></svg>